{
	"asset":{
		"generator":"Khronos glTF Blender I/O v3.6.27",
		"version":"2.0"
	},
	"scene":0,
	"scenes":[
		{
			"name":"Scene",
			"nodes":[
				0,
				1,
				2
			]
		}
	],
	"nodes":[
		{
			"mesh":0,
			"name":"Milk",
			"scale":[
				0.8168827891349792,
				1,
				0.8168827891349792
			]
		},
		{
			"mesh":1,
			"name":"Almond Milk",
			"scale":[
				0.8168827891349792,
				1,
				0.8168827891349792
			],
			"translation":[
				0,
				0,
				2
			]
		},
		{
			"mesh":2,
			"name":"Soya Milk",
			"scale":[
				0.8168827891349792,
				1,
				0.8168827891349792
			],
			"translation":[
				0,
				0,
				-2
			]
		}
	],
	"materials":[
		{
			"doubleSided":true,
			"name":"Material.002",
			"pbrMetallicRoughness":{
				"baseColorTexture":{
					"index":0
				},
				"metallicFactor":0,
				"roughnessFactor":0.5
			}
		}
	],
	"meshes":[
		{
			"name":"Cube.002",
			"primitives":[
				{
					"attributes":{
						"POSITION":0,
						"NORMAL":1,
						"TEXCOORD_0":2
					},
					"indices":3,
					"material":0
				}
			]
		},
		{
			"name":"Cube.008",
			"primitives":[
				{
					"attributes":{
						"POSITION":4,
						"NORMAL":5,
						"TEXCOORD_0":6
					},
					"indices":7,
					"material":0
				}
			]
		},
		{
			"name":"Cube.001",
			"primitives":[
				{
					"attributes":{
						"POSITION":8,
						"NORMAL":9,
						"TEXCOORD_0":10
					},
					"indices":11,
					"material":0
				}
			]
		}
	],
	"textures":[
		{
			"sampler":0,
			"source":0
		}
	],
	"images":[
		{
			"mimeType":"image/png",
			"name":"Material-01",
			"uri":"Material-01.png"
		}
	],
	"accessors":[
		{
			"bufferView":0,
			"componentType":5126,
			"count":984,
			"max":[
				1,
				2.2974863052368164,
				1
			],
			"min":[
				-1.1687772274017334,
				-1,
				-1
			],
			"type":"VEC3"
		},
		{
			"bufferView":1,
			"componentType":5126,
			"count":984,
			"type":"VEC3"
		},
		{
			"bufferView":2,
			"componentType":5126,
			"count":984,
			"type":"VEC2"
		},
		{
			"bufferView":3,
			"componentType":5123,
			"count":4182,
			"type":"SCALAR"
		},
		{
			"bufferView":4,
			"componentType":5126,
			"count":991,
			"max":[
				1,
				2.2974863052368164,
				1
			],
			"min":[
				-1.1687772274017334,
				-1,
				-1
			],
			"type":"VEC3"
		},
		{
			"bufferView":5,
			"componentType":5126,
			"count":991,
			"type":"VEC3"
		},
		{
			"bufferView":6,
			"componentType":5126,
			"count":991,
			"type":"VEC2"
		},
		{
			"bufferView":7,
			"componentType":5123,
			"count":4182,
			"type":"SCALAR"
		},
		{
			"bufferView":8,
			"componentType":5126,
			"count":1050,
			"max":[
				1,
				2.2974863052368164,
				1
			],
			"min":[
				-1.1687772274017334,
				-1,
				-1
			],
			"type":"VEC3"
		},
		{
			"bufferView":9,
			"componentType":5126,
			"count":1050,
			"type":"VEC3"
		},
		{
			"bufferView":10,
			"componentType":5126,
			"count":1050,
			"type":"VEC2"
		},
		{
			"bufferView":11,
			"componentType":5123,
			"count":4182,
			"type":"SCALAR"
		}
	],
	"bufferViews":[
		{
			"buffer":0,
			"byteLength":11808,
			"byteOffset":0,
			"target":34962
		},
		{
			"buffer":0,
			"byteLength":11808,
			"byteOffset":11808,
			"target":34962
		},
		{
			"buffer":0,
			"byteLength":7872,
			"byteOffset":23616,
			"target":34962
		},
		{
			"buffer":0,
			"byteLength":8364,
			"byteOffset":31488,
			"target":34963
		},
		{
			"buffer":0,
			"byteLength":11892,
			"byteOffset":39852,
			"target":34962
		},
		{
			"buffer":0,
			"byteLength":11892,
			"byteOffset":51744,
			"target":34962
		},
		{
			"buffer":0,
			"byteLength":7928,
			"byteOffset":63636,
			"target":34962
		},
		{
			"buffer":0,
			"byteLength":8364,
			"byteOffset":71564,
			"target":34963
		},
		{
			"buffer":0,
			"byteLength":12600,
			"byteOffset":79928,
			"target":34962
		},
		{
			"buffer":0,
			"byteLength":12600,
			"byteOffset":92528,
			"target":34962
		},
		{
			"buffer":0,
			"byteLength":8400,
			"byteOffset":105128,
			"target":34962
		},
		{
			"buffer":0,
			"byteLength":8364,
			"byteOffset":113528,
			"target":34963
		}
	],
	"samplers":[
		{
			"magFilter":9729,
			"minFilter":9987
		}
	],
	"buffers":[
		{
			"byteLength":121892,
			"uri":"FREE_Pacakage%20Drinks.bin"
		}
	]
}
